PathFileType	4	(X/Y/Z)	/Users/niels/Desktop/University/Third Semester/Perception and Action/Exam/Gymnastics Motion Tracking/Code for Gym Tracking/Analyzed Data/Webcam_Backflip/id5_2_baseline_Sports2D/id5_2_baseline_Sports2D_px_person00.trc
DataRate	CameraRate	NumFrames	NumMarkers	Units	OrigDataRate	OrigDataStartFrame	OrigNumFrames
29.81132075471698	29.81132075471698	12	22	m	29.81132075471698	39	159
Frame#	Time	Hip			RHip			RKnee			RAnkle			RBigToe			RSmallToe			RHeel			LHip			LKnee			LAnkle			LBigToe			LSmallToe			LHeel			Neck			Head			Nose			RShoulder			RElbow			RWrist			LShoulder			LElbow			LWrist		
		X1	Y1	Z1	X2	Y2	Z2	X3	Y3	Z3	X4	Y4	Z4	X5	Y5	Z5	X6	Y6	Z6	X7	Y7	Z7	X8	Y8	Z8	X9	Y9	Z9	X10	Y10	Z10	X11	Y11	Z11	X12	Y12	Z12	X13	Y13	Z13	X14	Y14	Z14	X15	Y15	Z15	X16	Y16	Z16	X17	Y17	Z17	X18	Y18	Z18	X19	Y19	Z19	X20	Y20	Z20	X21	Y21	Z21	X22	Y22	Z22
39	1.3082278481012657	0.9639590281202797	-0.6380820055993273	0.0	0.9631048376758344	-0.6386418541502726	0.0	1.0377061779348802	-0.7151994591449836	0.0	0.9874697137736227	-0.808106578255447	0.0	1.0221278435368675	-0.824640463075371	0.0	1.0143113725404396	-0.8299321679781064	0.0	0.9748318796298555	-0.8176358915900886	0.0	0.9661320689690164	-0.6370365209502239	0.0	1.034392765926459	-0.7130195480363211	0.0	0.9873164732198523	-0.8018840849837929	0.0	1.0272289156558885	-0.8191322166911275	0.0	1.0191434287948007	-0.8131066504583246	0.0	0.9704770581351775	-0.8113520770836856	0.0	1.0054013218248876	-0.5005058521386969	0.0	1.0282933255475537	-0.4393211555049359	0.0	1.0403171341848214	-0.471156406992922	0.0	1.004050849595131	-0.5172556813599087	0.0	1.017055728418208	-0.573600339284082	0.0	1.0432078703289351	-0.609745869647246	0.0	0.9952475274616678	-0.5131477700490612	0.0	1.0089793487277132	-0.5639213430447594	0.0	1.0404920190555484	-0.5928601031164281	0.0
40	1.3417721518987342	0.9639839208024368	-0.6493001653235421	0.0	0.9628630280130727	-0.6506352748275867	0.0	1.033384097771419	-0.7317859924001126	0.0	0.9873815115278433	-0.8239439070097347	0.0	1.0218018569099436	-0.8372842911394481	0.0	1.014515210262361	-0.8452881084171482	0.0	0.9751117069176607	-0.8326593078359963	0.0	0.9663777476604223	-0.6490456061462853	0.0	1.0298747517138274	-0.7293169710101409	0.0	0.9865844003360343	-0.8174574346872558	0.0	1.0262987476460812	-0.8286077033101186	0.0	1.0170971602128953	-0.8224781041477067	0.0	0.9698794400292599	-0.8252834231597884	0.0	0.9975511632046372	-0.5098856485134357	0.0	1.015074544407155	-0.4466621957906974	0.0	1.029688107955273	-0.47892503842233486	0.0	0.9975639985966576	-0.5259603560474708	0.0	1.031548140980198	-0.5721081766750684	0.0	1.0704520499141363	-0.5897439476012721	0.0	0.9891385342930468	-0.5220616496473461	0.0	1.0239906516885224	-0.5618182533095334	0.0	1.0646179611338407	-0.5732200031542957	0.0
41	1.3753164556962025	0.964971644745115	-0.6551807162936637	0.0	0.9636618955720021	-0.6570552907191409	0.0	1.027443232840324	-0.7445059170810745	0.0	0.9867810190132652	-0.8367410805245035	0.0	1.0209216241836527	-0.847394611185883	0.0	1.0137809228306414	-0.8583669200335756	0.0	0.974939942019549	-0.8451357803324435	0.0	0.9670682610088778	-0.6554598399263117	0.0	1.0234766855452935	-0.7417702187811903	0.0	0.9855248782372465	-0.8299688870965244	0.0	1.024606275380625	-0.8352652482253429	0.0	1.0146082025393048	-0.8296324413397305	0.0	0.9687126476222284	-0.8366571860290697	0.0	0.9888712807099784	-0.5145213805807586	0.0	1.0003500221037	-0.44931803586331515	0.0	1.01771430308745	-0.481475404224658	0.0	0.990547799968851	-0.5284027553964225	0.0	1.0400548410385144	-0.5563871055455127	0.0	1.081868861683288	-0.5513190249695589	0.0	0.9819386380749947	-0.5252035929510269	0.0	1.0325094002375017	-0.5471892729335968	0.0	1.074217184543169	-0.5379648008725476	0.0
42	1.4088607594936708	0.9669837280559358	-0.6539047616234883	0.0	0.9659088214775055	-0.6558965183597563	0.0	1.0206497027658001	-0.7505066228243552	0.0	0.9856710017125367	-0.8440751075306254	0.0	1.018641904403036	-0.8533684202804512	0.0	1.011535825113645	-0.8661992750899632	0.0	0.9743505792821684	-0.8528405356387846	0.0	0.9681435931628405	-0.6542925955711829	0.0	1.0161344260463245	-0.7475703350561808	0.0	0.9841639897580601	-0.837196776250414	0.0	1.0220229464039965	-0.8385617211924885	0.0	1.0117412053339476	-0.8341243939391753	0.0	0.967307533720224	-0.8434524943416402	0.0	0.9794474952955615	-0.5129745959796712	0.0	0.9840809371585275	-0.4460854857399993	0.0	1.0042857271126864	-0.4773596024804291	0.0	0.9828368040129312	-0.5234729203787507	0.0	1.039372383578067	-0.5283785737193064	0.0	1.0742425244521927	-0.5015795680258377	0.0	0.9733196565351945	-0.5214922315967877	0.0	1.0313608427944518	-0.5224099943321185	0.0	1.0659535393893464	-0.49394845128677645	0.0
43	1.4424050632911392	0.9698823084312989	-0.6443623057157654	0.0	0.9695862400807299	-0.6460319485203448	0.0	1.0141883049107834	-0.7476509187608433	0.0	0.9844042119355892	-0.8439337895829193	0.0	1.0148446516928853	-0.8538544210569383	0.0	1.0078965587666278	-0.8663717322043992	0.0	0.9736756940236317	-0.8537681162289791	0.0	0.9695252745729492	-0.6445211979924085	0.0	1.0090421960388378	-0.7446373089843811	0.0	0.9828083108524626	-0.8372405893678525	0.0	1.0184463933210683	-0.8379997079002598	0.0	1.0085875409223324	-0.8351653771641602	0.0	0.9662523155295816	-0.8438336770677518	0.0	0.969085271266984	-0.504414435824827	0.0	0.9658969339680676	-0.4362600896158948	0.0	0.9889510704462271	-0.46593383422421353	0.0	0.9738702566719792	-0.5110624964278814	0.0	1.027958398862873	-0.49220145024740725	0.0	1.0492117160532588	-0.4489266450495081	0.0	0.9630933528971048	-0.510648117777339	0.0	1.019799622644583	-0.4913270462345006	0.0	1.0412294959046928	-0.44836980692797646	0.0
44	1.4759493670886075	0.9731066634125584	-0.6264235479702529	0.0	0.973966828793133	-0.6275122417768197	0.0	1.0096860947650395	-0.7347286948263814	0.0	0.9838387855674434	-0.8348666137571693	0.0	1.0106629277319867	-0.8476588741370258	0.0	1.0040332157360012	-0.8579250886046037	0.0	0.9736266614886033	-0.8462983516163942	0.0	0.9709791042552919	-0.6263213237276131	0.0	1.003787598666617	-0.7318337740552885	0.0	0.9821712917234533	-0.8286655115920654	0.0	1.014417824679117	-0.8325622593448971	0.0	1.0056251648686712	-0.8313615044791322	0.0	0.9663913558376457	-0.8363149642983976	0.0	0.9574448783217951	-0.48892330016144625	0.0	0.9453481320930708	-0.42014349657851824	0.0	0.9712535357770026	-0.44770832350955025	0.0	0.9629414676535667	-0.4921800276865688	0.0	1.0064877653575537	-0.45318489449824445	0.0	1.0122256225735162	-0.40060428311825164	0.0	0.9513271613415774	-0.4932733411583408	0.0	0.9994420279373798	-0.45794299879035144	0.0	1.0053695359092534	-0.4066433496174924	0.0
45	1.5094936708860758	0.9756441999876453	-0.6011142403666316	0.0	0.9776771146226304	-0.6016292854014106	0.0	1.008991214365058	-0.7114576579350664	0.0	0.9851938130344048	-0.8161319723822223	0.0	1.0081169463049273	-0.8337989765979157	0.0	1.0019219857907085	-0.8409778966978432	0.0	0.9751726674538466	-0.8293528132943957	0.0	0.9720217400196677	-0.6009938493108502	0.0	1.0022555854951567	-0.7088733922101993	0.0	0.9833146444043088	-0.8106110394287859	0.0	1.0115303594133154	-0.8206468312467757	0.0	1.003998766381987	-0.8209368012195031	0.0	0.9686429899286841	-0.8198683972032774	0.0	0.9441999675417714	-0.46757725229329306	0.0	0.9223696001075731	-0.3991798813495736	0.0	0.9511956399036798	-0.42433414950452325	0.0	0.9495184614714868	-0.4687122481848411	0.0	0.9779370128033693	-0.4167988637984417	0.0	0.970671549185466	-0.36155233163905653	0.0	0.9381836326452792	-0.47076710509128905	0.0	0.9736047937098795	-0.4257275858772628	0.0	0.9655904508818672	-0.3720691623279008	0.0
46	1.5430379746835443	0.9763459544443417	-0.5706341466539071	0.0	0.9792317281798472	-0.5708006788994696	0.0	1.0134578038328643	-0.6783575673926958	0.0	0.9895882821957986	-0.7876775494256482	0.0	1.0091658832054906	-0.8115367768788139	0.0	1.0034650504619813	-0.8157743245461516	0.0	0.9792413400276142	-0.8024024929649186	0.0	0.9720002205287658	-0.5707780088215164	0.0	1.0059547364421526	-0.6761076664318805	0.0	0.9873535390447677	-0.7827956969751662	0.0	1.011888543349937	-0.8005805364350408	0.0	1.0053829469338598	-0.8021463381556021	0.0	0.9737046635754921	-0.7939040410553124	0.0	0.929231111816372	-0.4424019812170174	0.0	0.8975941936350023	-0.3756532181443506	0.0	0.9294500567956705	-0.3982572378003361	0.0	0.9335084985565973	-0.44300949025959435	0.0	0.9470726780937756	-0.3875510397707122	0.0	0.9321718607040359	-0.3342176499782569	0.0	0.923808706711686	-0.4451630857395889	0.0	0.94652862766429	-0.3972527744101438	0.0	0.9290542097570249	-0.34619786237923766	0.0
47	1.5765822784810126	0.9744541846687981	-0.5380381341985577	0.0	0.9777354832555468	-0.5381765893386559	0.0	1.0229069081291318	-0.6365802262794716	0.0	0.997570407396403	-0.7499579860762728	0.0	1.0150024171933325	-0.7801854252190586	0.0	1.0097979322156074	-0.7821778529347552	0.0	0.9864643984232737	-0.7654456280917685	0.0	0.9703577214099864	-0.5385879856282357	0.0	1.0149570592592996	-0.6344370200302994	0.0	0.9950179703360407	-0.7455068407796481	0.0	1.0171377989134505	-0.7710296384902064	0.0	1.0113370907744044	-0.7735560012175332	0.0	0.9819255005267352	-0.758290086977278	0.0	0.9128047524543486	-0.41613936062692874	0.0	0.8722326058649904	-0.3522685225888797	0.0	0.9071475238278844	-0.37218833609137536	0.0	0.9154667139314431	-0.41750533118334787	0.0	0.9193460277395039	-0.3680985788149791	0.0	0.9032688271682437	-0.3186924107150104	0.0	0.908442564903299	-0.4189206345203875	0.0	0.9225751227269854	-0.37395390890574065	0.0	0.9016648906484229	-0.32900819025248623	0.0
48	1.610126582278481	0.9700057936014242	-0.506568394062372	0.0	0.973285692333091	-0.5068888966482787	0.0	1.0349951160145074	-0.5877524999286857	0.0	1.0089658765745937	-0.7038329689818653	0.0	1.026031209701698	-0.7389835016889842	0.0	1.0213261416752581	-0.7396785541794527	0.0	0.9971291075911258	-0.7192220017824998	0.0	0.9668909474499507	-0.5075095167699395	0.0	1.0271305630455072	-0.585404099331386	0.0	1.0063152850737531	-0.6996063352020397	0.0	1.027920981824969	-0.7310511531861511	0.0	1.0225925748472713	-0.7341391252423426	0.0	0.9933994478611144	-0.7136105598981053	0.0	0.8955752206873816	-0.3917071615856651	0.0	0.8475955910639827	-0.3318644968263918	0.0	0.8854112223222491	-0.3486306061986322	0.0	0.8966231863947106	-0.39435147083931116	0.0	0.8993213479404338	-0.35881000558970183	0.0	0.888194739415514	-0.3130643075161676	0.0	0.8925428600944084	-0.39461664529621915	0.0	0.9050850081970551	-0.3563771400061766	0.0	0.8871048915534047	-0.3191743018797275	0.0
49	1.6436708860759492	0.9639048276855391	-0.47886780073735585	0.0	0.9669782402002883	-0.47923593948013854	0.0	1.0456504116784142	-0.5339131481884347	0.0	1.0229556761112095	-0.650634687729967	0.0	1.0419392293429153	-0.6873631043613985	0.0	1.037813205627923	-0.6878262567513211	0.0	1.0110917539652715	-0.6654552239248052	0.0	0.9619275292360624	-0.48009202742580376	0.0	1.0383555425538147	-0.5313479121766	0.0	1.0204042138372849	-0.6465081520887384	0.0	1.0435738219620994	-0.6801905526714113	0.0	1.0386158343141199	-0.6834320353135157	0.0	1.0079401068216183	-0.6613876683821334	0.0	0.8784384916652257	-0.371614535506637	0.0	0.8246872485098674	-0.3170900583064646	0.0	0.8649470963558019	-0.3296768882221798	0.0	0.8785824482874559	-0.3751591540681785	0.0	0.8890752226413852	-0.3576542208850621	0.0	0.8877074266132833	-0.3139890903224326	0.0	0.8768865933967825	-0.37462279579252866	0.0	0.8951711744269032	-0.34493329272293244	0.0	0.8857659850409395	-0.31470315762764306	0.0
50	1.6772151898734176	0.9576780935658307	-0.45632745308442035	0.0	0.9606068101271983	-0.4562073167244054	0.0	1.0504425092394256	-0.47767246721205414	0.0	1.0379975616398858	-0.5921434741172886	0.0	1.0610498686635474	-0.6254477910917959	0.0	1.0577098178743571	-0.62676914154831	0.0	1.0273817553221112	-0.6065356930840528	0.0	0.9563884640359422	-0.4577361510115138	0.0	1.0438395707686174	-0.47549705081611743	0.0	1.0355288942602314	-0.5880665735722053	0.0	1.0617526800892756	-0.6188337436741849	0.0	1.057290299473617	-0.6219146357141261	0.0	1.0247115101053972	-0.6038007410220468	0.0	0.8624100931793675	-0.35766512945546663	0.0	0.8042508797858988	-0.30994279256751617	0.0	0.8460318312755113	-0.31702740585842215	0.0	0.8628681395200792	-0.3609928489162189	0.0	0.8876427363610588	-0.36060407034542574	0.0	0.8987441610776091	-0.31735724470279075	0.0	0.8625445817224101	-0.3609099389140187	0.0	0.8913929784597919	-0.34007892314908833	0.0	0.8943954858184874	-0.3136184620545105	0.0
